Coordinates
version=1
nRows=14
nColumns=24
inDegrees=yes

Units are S.I. units (second, meters, Newtons, ...)
Angles are in degrees.

endheader
time	pelvis_tilt	pelvis_list	pelvis_rotation	pelvis_tx	pelvis_ty	pelvis_tz	hip_flexion_r	hip_adduction_r	hip_rotation_r	knee_angle_r	ankle_angle_r	subtalar_angle_r	mtp_angle_r	hip_flexion_l	hip_adduction_l	hip_rotation_l	knee_angle_l	ankle_angle_l	subtalar_angle_l	mtp_angle_l	lumbar_extension	lumbar_bending	lumbar_rotation
      0.01000000	     44.99483629	     -3.36044928	     -0.39883807	      0.57047214	      1.08510213	     -0.34110567	     27.45619098	     -7.84389725	     -7.85874169	    -73.38894299	    -28.53717409	    -18.92403367	      0.00000000	     31.01859297	    -13.72005777	     -5.24682319	    -18.48871612	    -39.81618899	      7.28007195	      0.00000000	      0.00000000	      0.00000000	      0.00000000
      0.02000000	     44.96623621	     -3.34930213	     -0.36832548	      0.57064000	      1.08522937	     -0.34114627	     27.46615023	     -7.87128885	     -7.88343330	    -73.38422921	    -28.52760169	    -18.91922575	      0.00000000	     31.04381776	    -13.69156404	     -5.23429926	    -18.48209609	    -39.81505849	      7.26509159	      0.00000000	      0.00000000	      0.00000000	      0.00000000
      0.03000000	     44.93853956	     -3.33810799	     -0.33674414	      0.57076701	      1.08533399	     -0.34117072	     27.47514525	     -7.89633568	     -7.90623243	    -73.38216148	    -28.51847396	    -18.91431399	      0.00000000	     31.07032322	    -13.66464722	     -5.22238734	    -18.47680793	    -39.81630131	      7.24796515	      0.00000000	      0.00000000	      0.00000000	      0.00000000
      0.04000000	     44.91626998	     -3.32839116	     -0.30803636	      0.57083223	      1.08537129	     -0.34118872	     27.48504349	     -7.91761835	     -7.92634247	    -73.38250883	    -28.51004698	    -18.90937741	      0.00000000	     31.09779086	    -13.64100947	     -5.21222095	    -18.47393627	    -39.82142209	      7.22875705	      0.00000000	      0.00000000	      0.00000000	      0.00000000
      0.05000000	     44.90134146	     -3.32153582	     -0.28578421	      0.57084648	      1.08533908	     -0.34120091	     27.49665085	     -7.93363261	     -7.94288826	    -73.38471006	    -28.50243504	    -18.90450320	      0.00000000	     31.12535039	    -13.62209813	     -5.20474717	    -18.47402719	    -39.83142268	      7.20814778	      0.00000000	      0.00000000	      0.00000000	      0.00000000
      0.06000000	     44.89165100	     -3.31811083	     -0.27175139	      0.57083854	      1.08527908	     -0.34120516	     27.50944930	     -7.94358892	     -7.95520189	    -73.38766357	    -28.49537932	    -18.89975589	      0.00000000	     31.15146119	    -13.60873665	     -5.20011636	    -18.47646628	    -39.84600006	      7.18746273	      0.00000000	      0.00000000	      0.00000000	      0.00000000
      0.07000000	     44.88309367	     -3.31771296	     -0.26554343	      0.57082998	      1.08523711	     -0.34120645	     27.52244382	     -7.94783894	     -7.96297587	    -73.38984312	    -28.48820574	    -18.89515745	      0.00000000	     31.17410565	    -13.60116087	     -5.19757422	    -18.47955891	    -39.86339148	      7.16831668	      0.00000000	      0.00000000	      0.00000000	      0.00000000
      0.08000000	     44.87285093	     -3.31932182	     -0.26525280	      0.57082836	      1.08522985	     -0.34121324	     27.53472317	     -7.94769497	     -7.96641036	    -73.38995871	    -28.48007083	    -18.89065978	      0.00000000	     31.19141357	    -13.59879698	     -5.19601330	    -18.48128149	    -39.88089261	      7.15205520	      0.00000000	      0.00000000	      0.00000000	      0.00000000
      0.09000000	     44.86150055	     -3.32179668	     -0.26853288	      0.57083203	      1.08524803	     -0.34122565	     27.54524362	     -7.94497176	     -7.96625371	    -73.38771052	    -28.47036966	    -18.88613865	      0.00000000	     31.20232523	    -13.60002815	     -5.19480442	    -18.48030314	    -39.89575418	      7.13923856	      0.00000000	      0.00000000	      0.00000000	      0.00000000
      0.10000000	     44.85263603	     -3.32396468	     -0.27326136	      0.57083728	      1.08527308	     -0.34123581	     27.55236390	     -7.94152996	     -7.96360408	    -73.38398868	    -28.45905730	    -18.88145022	      0.00000000	     31.20657085	    -13.60266551	     -5.19425179	    -18.47676615	    -39.90602043	      7.12939885	      0.00000000	      0.00000000	      0.00000000	      0.00000000
      0.11000000	     44.85049369	     -3.32459098	     -0.27765887	      0.57083850	      1.08528953	     -0.34124060	     27.55374819	     -7.93891266	     -7.95957952	    -73.38036941	    -28.44670454	    -18.87653884	      0.00000000	     31.20411117	    -13.60481337	     -5.19538477	    -18.47232879	    -39.91099948	      7.12119575	      0.00000000	      0.00000000	      0.00000000	      0.00000000
      0.12000000	     44.85766547	     -3.32287821	     -0.28035070	      0.57082922	      1.08529250	     -0.34124121	     27.54707001	     -7.93820886	     -7.95507910	    -73.37819258	    -28.43425246	    -18.87154384	      0.00000000	     31.19487850	    -13.60523662	     -5.19930177	    -18.46933117	    -39.91130336	      7.11292284	      0.00000000	      0.00000000	      0.00000000	      0.00000000
      0.13000000	     44.87420522	     -3.31900733	     -0.28057797	      0.57080978	      1.08528499	     -0.34123541	     27.53133279	     -7.93998854	     -7.95082187	    -73.37779676	    -28.42263007	    -18.86682977	      0.00000000	     31.17906368	    -13.60326962	     -5.20642620	    -18.46958274	    -39.90856753	      7.10315888	      0.00000000	      0.00000000	      0.00000000	      0.00000000
      0.14000000	     44.89775846	     -3.31393906	     -0.27834551	      0.57078783	      1.08527150	     -0.34122401	     27.50787654	     -7.94419840	     -7.94752692	    -73.37850629	    -28.41251001	    -18.86290913	      0.00000000	     31.15759017	    -13.59891031	     -5.21598621	    -18.47348780	    -39.90499464	      7.09130860	      0.00000000	      0.00000000	      0.00000000	      0.00000000
